<svg width="960" height="460" viewBox="0 0 960 460" fill="none" xmlns="http://www.w3.org/2000/svg">
<g clip-path="url(#clip0_499_2)">
<g opacity="0.5">
<path opacity="0.5" d="M914.868 457.834L851.669 457.797H835.423H809.102H792.856L332.764 457.537L298.896 457.5L166.549 457.425L139.411 457.388L53.6824 457.351C53.6824 457.351 13.8296 362.786 71.4898 249.508C84.0182 224.881 89.4831 202.3 91.2675 181.095C92.0482 171.795 92.1597 162.755 91.8252 153.938C90.4496 116.365 101.082 85.9718 122.719 62.6467C125.358 59.7822 128.183 56.9922 131.195 54.3509C145.099 41.9629 162.571 31.8814 183.427 24.032C263.319 -6.06377 307.819 63.4652 522.957 36.1595C698.54 13.876 695.455 -12.6856 823.08 6.84503C864.569 13.2064 892.154 30.9514 904.868 54.3881C906.355 57.0666 907.619 59.8567 908.66 62.6839C910.593 67.7805 911.857 73.1375 912.489 78.6432C913.753 89.7292 914.199 101.076 914.013 112.533C913.418 149.474 906.429 187.568 900.704 221.384C899.775 226.853 898.882 232.247 898.065 237.492C896.131 249.657 894.57 261.115 893.789 271.531C893.343 277.297 893.157 282.729 893.269 287.788C893.418 296.382 894.459 303.971 896.726 310.258C918.363 370.821 928.661 423.498 914.868 457.834Z" fill="#00A7E5" fill-opacity="0.25"/>
</g>
<path d="M605.414 324.915H581.658V320.86H605.414C614.336 320.86 621.623 313.568 621.623 304.64V268.183H625.675V304.64C625.675 315.838 616.604 324.915 605.414 324.915Z" fill="#FF4A69"/>
<path d="M618.314 336.298H578.164V332.243H618.314C626.641 332.243 633.407 325.473 633.407 317.14V263.905H637.46V317.14C637.46 327.742 628.872 336.298 618.314 336.298Z" fill="#8C9DF4"/>
<path d="M585.673 95.4951H573.888V457.834H585.673V95.4951Z" fill="#00668B"/>
<path d="M914.087 112.422H389.941C358.415 112.422 332.727 138.091 332.727 169.674V457.834H298.896V169.674C298.896 119.453 339.753 78.5688 389.941 78.5688H912.563C913.827 89.6176 914.273 101.001 914.087 112.422Z" fill="#00A7E5"/>
<path d="M893.306 287.676H880.034C864.42 287.676 851.706 300.399 851.706 316.024V457.797H835.46V316.061C835.46 291.471 855.461 271.419 880.071 271.419H893.864C893.417 277.186 893.194 282.617 893.306 287.676Z" fill="#00668B"/>
<path d="M900.778 221.272C899.849 226.741 898.957 232.135 898.139 237.381H837.467C823.749 237.381 809.139 240.357 809.139 276.107V457.834H792.893V276.107C792.893 239.203 807.466 221.272 837.504 221.272H900.778Z" fill="#00668B"/>
<path d="M166.586 226.927V457.834H139.448V226.927C139.448 201.63 118.889 181.058 93.6096 181.058H91.3047C92.0854 171.757 92.1969 162.718 91.8623 153.901H93.6096C133.834 153.938 166.586 186.675 166.586 226.927Z" fill="#00A7E5"/>
<path d="M533.813 225.179H433.734V456.309H533.813V225.179Z" fill="#00A7E5" fill-opacity="0.25"/>
<path d="M379.16 456.049H357.672V348.798C357.672 321.418 379.94 299.097 407.339 299.097H467.639V320.599H407.339C391.837 320.599 379.197 333.248 379.197 348.761V456.049H379.16Z" fill="#00A7E5" fill-opacity="0.25"/>
<path d="M172.497 353.783C172.274 353.374 172.051 353.002 171.791 352.63C170.713 350.993 169.486 349.505 168.111 348.165C164.839 345.003 160.75 342.846 156.214 341.841C154.467 341.469 152.72 341.283 150.972 341.283C150.303 341.283 149.634 341.32 148.965 341.358C144.95 341.692 141.084 342.994 137.626 345.227C136.288 346.082 135.061 347.049 133.946 348.128C130.414 351.514 127.923 355.866 126.882 360.777C125.507 367.25 126.696 373.834 130.265 379.377C131.343 381.014 132.57 382.502 133.946 383.841C137.217 387.003 141.307 389.161 145.842 390.166C147.589 390.538 149.337 390.724 151.084 390.724C155.768 390.724 160.378 389.384 164.43 386.743C165.769 385.887 166.995 384.92 168.111 383.841C171.642 380.456 174.133 376.066 175.174 371.193C176.475 365.241 175.509 359.065 172.497 353.783ZM170.639 370.263C170.155 372.532 169.3 374.653 168.111 376.55C167.33 377.852 166.363 379.042 165.322 380.121C164.319 381.163 163.166 382.093 161.902 382.874C161.828 382.911 161.754 382.986 161.679 383.023C157.218 385.813 151.976 386.743 146.809 385.627C144.801 385.181 142.905 384.474 141.158 383.469C139.782 382.725 138.518 381.795 137.403 380.716C136.213 379.6 135.135 378.298 134.206 376.885C134.132 376.736 134.02 376.624 133.946 376.476C131.232 372.049 130.34 366.84 131.418 361.781C131.641 360.777 131.938 359.772 132.31 358.805C132.756 357.652 133.314 356.536 133.946 355.494C134.132 355.234 134.28 354.973 134.466 354.676C134.503 354.638 134.503 354.601 134.541 354.564C136.028 352.444 137.924 350.583 140.154 349.133C142.645 347.533 145.396 346.491 148.259 346.119C148.63 346.082 149.002 346.045 149.374 346.008C149.894 345.971 150.452 345.933 151.01 345.933C151.642 345.933 152.274 345.971 152.943 346.008C153.723 346.082 154.504 346.194 155.285 346.38C156.995 346.752 158.594 347.31 160.118 348.091H160.155C162.609 349.319 164.802 351.067 166.549 353.225C166.921 353.671 167.256 354.118 167.59 354.601C167.702 354.75 167.813 354.936 167.925 355.085C167.999 355.234 168.111 355.345 168.185 355.494C168.52 356.015 168.817 356.573 169.077 357.131C171.01 361.223 171.568 365.799 170.639 370.263Z" fill="#1C1C1C"/>
<path d="M151.158 368.738L130.117 357.689L132.273 353.56L150.898 363.344L168.557 351.923L171.085 355.829L151.158 368.738Z" fill="#1C1C1C"/>
<path d="M140.117 384.883L136.362 382.13L148.668 365.278L148.184 343.701L152.831 343.59L153.389 366.766L140.117 384.883Z" fill="#1C1C1C"/>
<path d="M152.832 364.57L149.208 367.48L163.216 384.946L166.84 382.036L152.832 364.57Z" fill="#1C1C1C"/>
<path d="M146.548 366.022C146.548 363.566 148.556 361.558 151.009 361.558C153.463 361.558 155.471 363.566 155.471 366.022C155.471 368.477 153.463 370.486 151.009 370.486C148.556 370.523 146.548 368.514 146.548 366.022Z" fill="#1C1C1C"/>
<path d="M816.054 361.632C815.868 361.297 815.682 361 815.496 360.665C814.641 359.326 813.637 358.098 812.485 357.019C809.808 354.452 806.462 352.667 802.782 351.848C801.369 351.551 799.919 351.402 798.507 351.402C797.949 351.402 797.391 351.439 796.871 351.476C793.599 351.737 790.439 352.816 787.577 354.638C786.499 355.345 785.495 356.126 784.566 357.019C781.666 359.772 779.658 363.343 778.803 367.361C777.651 372.644 778.655 378.038 781.591 382.576C782.447 383.916 783.45 385.143 784.603 386.222C787.279 388.789 790.625 390.575 794.306 391.393C795.756 391.691 797.168 391.84 798.618 391.84C802.447 391.84 806.239 390.723 809.548 388.603C810.626 387.896 811.63 387.115 812.559 386.222C815.459 383.469 817.466 379.861 818.322 375.88C819.325 371.007 818.545 365.985 816.054 361.632ZM814.53 375.099C814.121 376.959 813.451 378.67 812.485 380.233C811.816 381.274 811.072 382.279 810.18 383.172C809.362 384.027 808.396 384.771 807.392 385.441C807.317 385.478 807.28 385.515 807.206 385.553C803.563 387.859 799.25 388.603 795.049 387.71C793.414 387.338 791.852 386.78 790.439 385.962C789.324 385.329 788.283 384.585 787.354 383.73C786.35 382.8 785.495 381.758 784.751 380.605C784.677 380.493 784.603 380.382 784.566 380.27C782.335 376.661 781.629 372.383 782.521 368.254C782.707 367.436 782.93 366.617 783.227 365.836C783.599 364.869 784.045 363.976 784.566 363.12C784.714 362.897 784.863 362.674 785.012 362.451C785.012 362.413 785.049 362.413 785.049 362.376C786.276 360.628 787.8 359.102 789.659 357.912C791.703 356.61 793.934 355.754 796.276 355.42C796.573 355.382 796.871 355.345 797.205 355.308C797.652 355.271 798.098 355.271 798.544 355.271C799.064 355.271 799.585 355.308 800.105 355.345C800.737 355.42 801.369 355.494 802.038 355.643C803.414 355.94 804.752 356.424 805.979 357.019C805.979 357.019 805.979 357.019 806.016 357.019C808.024 358.024 809.808 359.475 811.258 361.223C811.555 361.595 811.853 361.967 812.113 362.339C812.225 362.488 812.299 362.599 812.411 362.748C812.485 362.86 812.559 362.971 812.596 363.083C812.857 363.529 813.117 363.976 813.34 364.422C814.864 367.733 815.31 371.453 814.53 375.099Z" fill="#1C1C1C"/>
<path d="M798.618 373.871L781.406 364.831L783.19 361.446L798.395 369.444L812.857 360.107L814.901 363.306L798.618 373.871Z" fill="#1C1C1C"/>
<path d="M789.584 387.078L786.536 384.809L796.573 371.044L796.165 353.374L799.994 353.299L800.44 372.272L789.584 387.078Z" fill="#1C1C1C"/>
<path d="M799.965 370.42L797.007 372.795L808.455 387.069L811.413 384.694L799.965 370.42Z" fill="#1C1C1C"/>
<path d="M794.826 371.639C794.826 369.631 796.462 367.994 798.469 367.994C800.477 367.994 802.113 369.631 802.113 371.639C802.113 373.648 800.477 375.285 798.469 375.285C796.499 375.322 794.826 373.685 794.826 371.639Z" fill="#1C1C1C"/>
<path d="M382.505 425.729H354.326V457.834H382.505V425.729Z" fill="#AEC3FF"/>
<path d="M546.229 76.5601H534.296V115.51H546.229V76.5601Z" fill="#00668B"/>
<path d="M687.015 76.5601H675.082V115.51H687.015V76.5601Z" fill="#00668B"/>
<path d="M522.994 76.5601H511.061V115.51H522.994V76.5601Z" fill="#00668B"/>
<path d="M335.68 295.598V283.656H296.756V295.598H335.68Z" fill="#00668B"/>
<path d="M335.665 168.95V157.009H296.742V168.95H335.665Z" fill="#00668B"/>
<path d="M812.15 419.22H789.473V456.346H812.15V419.22Z" fill="#00668B"/>
<path d="M854.903 419.22H832.226V456.346H854.903V419.22Z" fill="#00668B"/>
<path d="M299.677 223.207C299.677 223.207 302.614 218.185 304.956 216.325C307.298 214.465 313.47 213.944 313.73 214.428C314.473 215.916 311.276 218.036 310.607 219.375C309.938 220.715 310.235 222.686 307.075 224.249C303.841 225.885 301.945 226.964 301.945 226.964L299.677 223.207Z" fill="#FFB27D"/>
<path d="M302.168 222.537C300.644 220.194 300.198 220.045 300.198 220.045C300.198 220.045 277.557 234.33 275.178 235.149C272.799 235.967 249.266 231.317 249.266 231.317L241.087 245.342C241.087 245.342 272.167 250.289 278.189 248.057C288.152 244.374 303.357 226.258 303.357 226.258C303.357 226.258 303.357 224.36 302.168 222.537Z" fill="#233862"/>
<path d="M308.674 220.491C308.674 220.491 313.135 217.776 313.321 218.929C313.432 219.524 311.462 221.124 310.644 221.793C309.863 222.463 307.819 223.802 307.819 223.802L308.674 220.491Z" fill="#FFB27D"/>
<path d="M339.902 201.37C335.627 195.418 329.567 191.475 322.987 189.763C316.927 188.164 310.421 188.424 304.399 190.693C301.945 191.623 299.603 192.888 297.372 194.488C283.729 204.309 280.643 223.393 290.458 237.046C294.733 242.998 300.792 246.942 307.373 248.653C310.421 249.471 313.618 249.806 316.778 249.62C319.864 249.471 322.987 248.839 325.961 247.686C327.634 247.053 329.232 246.272 330.831 245.342C331.165 245.156 331.5 244.933 331.835 244.709C332.206 244.449 332.615 244.189 332.987 243.928C333.768 243.37 334.511 242.775 335.18 242.18C337.039 240.58 338.638 238.794 340.013 236.86C347.337 226.481 347.709 212.196 339.902 201.37ZM339.567 223.133C338.935 227.113 337.374 230.796 335.032 233.921C334.586 234.516 334.14 235.074 333.656 235.632C333.099 236.265 332.467 236.897 331.835 237.455C331.76 237.53 331.686 237.567 331.649 237.641C331.017 238.199 330.348 238.72 329.641 239.241C329.567 239.315 329.455 239.39 329.381 239.427C329.269 239.501 329.195 239.576 329.084 239.613C328.898 239.762 328.675 239.873 328.489 240.022C327.708 240.543 326.89 240.989 326.072 241.399C325.961 241.473 325.812 241.51 325.701 241.585C325.366 241.733 325.031 241.882 324.66 242.031C319.009 244.375 312.726 244.449 307.112 242.515C306.109 242.18 305.142 241.771 304.176 241.287C302.465 240.431 300.867 239.39 299.38 238.125C297.818 236.823 296.406 235.335 295.179 233.624C290.383 226.965 289.379 218.743 291.759 211.489C292.353 209.666 293.134 207.918 294.138 206.281C295.811 203.528 298.004 201.11 300.792 199.101C302.056 198.171 303.395 197.39 304.77 196.757C306.629 195.902 308.562 195.269 310.57 194.86C311.685 194.637 312.8 194.525 313.916 194.451C314.696 194.414 315.477 194.414 316.295 194.451C317.262 194.488 318.228 194.6 319.195 194.748C320.607 194.972 322.02 195.344 323.358 195.79C327.225 197.129 330.682 199.399 333.47 202.449C334.102 203.156 334.734 203.9 335.292 204.681C335.85 205.462 336.37 206.281 336.853 207.099C339.493 212.01 340.46 217.59 339.567 223.133Z" fill="#1C1C1C"/>
<path d="M315.514 222.501L288.933 210.261L291.313 205.016L314.845 215.879L335.887 200.701L339.233 205.388L315.514 222.501Z" fill="#1C1C1C"/>
<path d="M302.949 243.073L298.153 239.911L312.243 218.446L310.272 191.884L315.998 191.438L318.117 219.934L302.949 243.073Z" fill="#1C1C1C"/>
<path d="M317.307 217.269L313.032 221.079L331.376 241.693L335.651 237.883L317.307 217.269Z" fill="#1C1C1C"/>
<path d="M309.678 219.487C309.529 216.436 311.871 213.832 314.919 213.683C317.968 213.535 320.57 215.878 320.719 218.929C320.868 221.979 318.526 224.583 315.477 224.732C312.429 224.844 309.826 222.537 309.678 219.487Z" fill="#1C1C1C"/>
<path d="M310.607 252.075L276.962 291.694C275.736 293.145 273.579 293.331 272.13 292.104C271.163 291.285 271.051 289.834 271.869 288.904L306.443 248.132C307.15 247.313 308.376 247.202 309.194 247.909L310.309 248.876C311.313 249.694 311.425 251.108 310.607 252.075Z" fill="#FF9E55"/>
<path d="M317.67 237.269L313.953 232.582C312.354 230.573 309.343 230.424 307.781 232.322L292.837 249.918C292.056 250.848 292.167 252.224 293.097 253.005L298.525 257.618L306.592 248.095L303.32 245.305L308.153 239.613C309.9 237.567 313.172 237.79 314.808 240.059L316.704 242.701L317.67 241.547C318.674 240.357 318.674 238.571 317.67 237.269Z" fill="#FF9E55"/>
<path d="M297.967 253.303C297.632 253.005 297.595 252.522 297.893 252.187C298.19 251.852 298.673 251.815 299.008 252.112C299.342 252.41 299.38 252.894 299.082 253.228C298.785 253.563 298.302 253.6 297.967 253.303Z" fill="#2A4E96"/>
<path d="M301.201 249.471C300.867 249.174 300.83 248.69 301.127 248.355C301.424 248.02 301.908 247.983 302.242 248.281C302.577 248.579 302.614 249.062 302.317 249.397C302.056 249.695 301.536 249.769 301.201 249.471Z" fill="#2A4E96"/>
<path d="M239.861 444.554C239.861 444.554 240.418 453.37 242.054 455.416H267.222C267.074 454.524 266.367 452.366 263.207 451.808C259.229 451.101 252.575 448.311 250.158 443.066C247.593 437.56 239.861 444.554 239.861 444.554Z" fill="#163560"/>
<path d="M195.212 443.326C195.212 443.326 193.353 455.565 195.51 455.751C195.807 455.789 205.175 455.64 208.819 455.64C213.354 455.603 220.938 455.454 220.938 455.454C221.867 455.491 222.314 454.04 221.83 453.222C221.31 452.329 220.306 451.399 218.41 451.027C214.432 450.246 207.852 447.344 205.547 442.061C203.093 436.481 195.212 443.326 195.212 443.326Z" fill="#163560"/>
<path d="M251.683 327.333C251.683 327.333 245.363 349.467 227.221 387.933C209.079 426.399 207.703 443.921 207.703 443.921L195.212 443.326C195.212 443.326 196.402 397.569 204.952 378.15C213.503 358.731 215.25 305.645 215.25 305.645L251.683 327.333Z" fill="#FF0029"/>
<path d="M261.832 308.286C261.832 308.286 262.352 342.586 256.404 384.697C250.493 426.809 252.501 444.665 252.501 444.665L238.299 445.149C238.299 445.149 229.823 403.037 232.24 381.944C234.656 360.888 220.604 309.625 220.604 309.625L261.832 308.286Z" fill="#FF0029"/>
<path d="M233.801 228.043L240.493 232.991L250.159 230.945C250.01 230.052 249.378 226.406 248.82 223.096C248.783 222.91 248.746 222.686 248.709 222.5C248.225 219.673 247.779 217.255 247.779 217.255L238.745 212.754L235.362 211.08C235.362 211.154 235.623 214.204 235.66 214.651C236.329 222.612 233.801 228.043 233.801 228.043Z" fill="#FFB27D"/>
<path d="M249.527 225.551C249.303 225.476 236.366 221.644 234.953 222.091C233.541 222.574 232.723 225.29 232.723 225.29L252.724 230.982C252.687 230.982 252.24 226.667 249.527 225.551Z" fill="#163560"/>
<path d="M214.618 312.527C216.811 322.534 262.575 291.099 261.981 284.998C261.906 284.328 261.832 283.659 261.795 282.989C260.94 274.47 260.122 266.137 260.085 260.706C260.047 255.981 259.378 251.182 258.523 246.792C257.742 242.738 256.739 239.092 255.884 236.227C255.289 234.218 254.174 232.433 252.687 231.056C251.646 230.052 250.382 229.271 249.043 228.713C248.671 228.564 248.3 228.415 247.891 228.303C242.389 226.704 234.73 224.732 232.686 225.327C227.072 226.964 222.908 236.86 219.971 249.434C214.469 272.908 213.205 305.979 214.618 312.527Z" fill="#2A4E96"/>
<path d="M236.366 214.799C238.336 218.594 245.734 221.905 248.82 223.095C248.783 222.909 248.746 222.686 248.709 222.5C248.225 219.673 247.779 217.255 247.779 217.255L238.745 212.753C236.775 212.753 235.548 213.237 236.366 214.799Z" fill="#FCA56B"/>
<path d="M252.203 216.734C252.203 216.734 235.883 221.83 232.872 211.6C229.86 201.37 225.734 195.157 235.994 191.474C246.292 187.791 249.452 191.102 251.311 194.264C253.17 197.464 256.367 215.171 252.203 216.734Z" fill="#FFB27D"/>
<path d="M250.679 193.297C250.679 193.297 249.638 205.164 247.185 204.681C244.731 204.16 242.5 203.788 242.872 207.359C243.244 210.931 246.627 215.097 239.08 215.73C231.496 216.362 220.641 196.831 222.723 193.148C228.671 182.435 259.341 180.277 250.679 193.297Z" fill="#163560"/>
<path d="M260.605 308.286C256.069 309.923 260.679 303.785 260.605 302.483C260.27 296.865 262.464 289.723 261.795 282.952L234.098 266.397C234.098 266.397 227.518 308.026 260.605 308.286Z" fill="#233862"/>
<path d="M214.618 312.527C226.44 334.438 228.336 342.809 228.336 342.809C238.634 341.618 256.255 321.381 261.832 315.987C261.832 315.987 262.575 291.062 261.981 284.961L253.43 284.7C253.43 284.7 237.965 288.607 233.987 283.287C229.972 277.967 231.719 251.889 231.719 251.889L219.972 249.359C214.469 272.908 211.458 306.649 214.618 312.527Z" fill="#CD0021"/>
<path d="M282.093 270.564C282.093 270.564 285.476 269.894 286.331 269.188C287.632 268.109 288.636 266.323 289.305 266.137C290.383 265.802 292.985 262.491 293.208 262.268C293.283 262.194 293.989 262.529 293.84 263.049C293.655 263.607 293.283 264.761 293.134 265.207C292.502 267.067 292.539 267.662 294.77 266.918C295.067 266.807 300.235 265.17 300.755 266.36C301.276 267.551 299.157 273.205 296.443 274.396C293.729 275.623 287.074 274.507 286.591 274.656C282.539 275.884 282.093 270.564 282.093 270.564Z" fill="#FFB27D"/>
<path d="M284.844 269.485C284.844 269.485 257.371 274.173 254.954 272.982C251.088 271.085 256.478 243.221 256.478 243.221C256.478 243.221 256.701 236.897 249.34 235.409C242.946 234.107 236.738 238.906 236.738 238.906C236.738 238.906 231.124 243.928 231.831 249.546C233.429 261.933 235.92 287.119 244.173 290.988C254.843 295.973 285.736 277.186 285.736 277.186C285.736 277.186 286.777 275.921 286.628 273.577C286.442 271.457 284.844 269.485 284.844 269.485Z" fill="#2A4E96"/>
<path d="M229.451 251.405L231.719 251.889C231.719 251.889 236.515 231.056 252.686 230.945C251.646 229.94 250.382 229.159 249.043 228.601C243.132 230.238 232.834 235.297 229.451 251.405Z" fill="#FF9E55"/>
<path d="M169.375 436.815H137.403V455.453H169.375V436.815Z" fill="#00668B"/>
<path d="M334.139 436.815H296.145V455.453H334.139V436.815Z" fill="#00668B"/>
<path d="M659.468 179.756H604.15V291.769H659.468V179.756Z" fill="#00A7E5" fill-opacity="0.25"/>
<path d="M650.843 188.87H612.961V208.549H650.843V188.87Z" fill="#AEC3FF"/>
<path d="M639.579 435.626C639.579 435.626 635.303 439.606 636.121 442.396C636.939 445.224 640.806 447.084 641.326 450.543C641.846 454.003 643.928 455.863 645.824 455.863C647.683 455.863 654.784 455.863 654.784 455.863C654.784 455.863 656.159 453.445 652.813 452.701C649.468 451.957 648.204 447.939 648.427 444.182C648.65 440.425 648.129 435.403 648.129 435.403L641.029 433.729L639.579 435.626Z" fill="#2C3A64"/>
<path d="M692.034 445.744C692.034 445.744 691.031 454.784 692.927 455.714H717.128C717.128 455.714 717.165 452.85 713.299 452.217C709.433 451.585 702.667 449.278 701.514 444.182C700.399 439.085 692.034 445.744 692.034 445.744Z" fill="#2C3A64"/>
<path d="M712.332 317.512C712.332 317.512 711.068 333.323 709.581 352.333C707.574 378.15 705.12 409.883 704.897 415.909C704.488 426.363 702.815 443.029 702.815 443.029C702.815 443.029 698.837 447.009 690.919 445.335C690.919 445.335 683.855 421.489 681.848 396.267C681.811 395.858 681.774 395.449 681.736 395.039C679.878 369.371 676.941 315.317 676.941 315.317L712.332 317.512Z" fill="#35488B"/>
<path d="M712.332 317.512C712.332 317.512 711.068 333.323 709.581 352.333L681.811 396.267C681.774 395.858 681.736 395.449 681.699 395.039C679.84 369.371 676.904 315.317 676.904 315.317L712.332 317.512Z" fill="#2C3A64"/>
<path d="M706.533 319.372C706.533 319.372 705.343 322.311 703.373 327.184C698.726 338.531 689.655 360.331 680.658 379.638C676.495 388.603 672.331 397.011 668.65 403.595C653.631 430.529 648.947 438.044 648.947 438.044C648.947 438.044 648.724 437.969 648.352 437.821C646.791 437.151 642.478 435.254 640.508 433.505C640.025 433.096 639.69 432.65 639.542 432.278C639.542 432.278 645.267 380.308 655.341 367.622C661.029 360.442 667.684 338.977 668.018 331.462C668.167 328.152 668.576 323.427 668.985 319.149C669.357 315.28 669.729 311.82 669.914 310.146C669.989 309.477 670.026 309.067 670.026 309.067L696.384 316.545L706.533 319.372Z" fill="#35488B"/>
<path d="M701.18 326.775C689.358 326.142 684.116 324.84 677.35 323.204C673.297 322.199 670.584 320.116 669.022 319.149C669.394 315.28 669.766 311.82 669.952 310.146L680.547 315.577L701.18 326.775Z" fill="#2C3A64"/>
<path d="M768.691 288.718C768.691 288.718 774.788 288.718 775.755 289.053C776.721 289.388 781.815 295.228 781.591 296.568C781.368 297.907 777.8 299.506 775.16 298.986C772.558 298.465 768.245 293.592 767.836 293.406C764.267 292.066 768.691 288.718 768.691 288.718Z" fill="#ED975D"/>
<path d="M770.848 294.447C772.298 291.843 771.591 288.049 771.591 288.049C771.591 288.049 753.04 273.019 751.07 271.196C749.1 269.374 729.248 237.083 729.248 237.083L701.737 238.869C701.737 238.869 735.679 277.893 740.772 282.394C749.174 289.834 770.625 297.498 770.625 297.498C770.625 297.498 769.732 296.493 770.848 294.447Z" fill="#CD0021"/>
<path d="M716.608 229.197C716.608 229.197 725.939 245.602 735.047 247.76C735.047 247.76 734.787 243.742 733.3 240.208C732.816 239.092 733.039 237.79 733.82 236.823C734.192 236.376 734.527 235.93 734.861 235.521C737.166 232.582 738.244 230.796 738.244 230.796L735.159 222.463L733.077 216.809C732.073 218.631 730.958 220.194 729.805 221.533C723.783 228.415 716.608 229.197 716.608 229.197Z" fill="#FFB27D"/>
<path d="M729.731 221.57C729.731 221.57 728.615 229.791 734.824 235.557C737.129 232.619 738.207 230.833 738.207 230.833L735.121 222.5C731.813 221.458 729.731 221.57 729.731 221.57Z" fill="#ED975D"/>
<path d="M740.661 231.986C740.661 231.986 726.72 226.555 730.251 217.924C733.783 209.294 734.341 202.784 743.375 205.908C752.408 208.996 752.78 213.014 752.297 216.176C751.851 219.338 744.378 233.177 740.661 231.986Z" fill="#FFB27D"/>
<path d="M732.705 268.518C731.181 272.908 729.21 277.372 726.868 281.613C726.422 282.469 725.976 283.287 725.53 284.105C725.233 284.663 724.972 285.184 724.712 285.742C719.619 296.01 717.277 304.864 716.273 311.857C716.087 313.197 715.938 314.461 715.827 315.652C715.381 320.786 667.535 304.082 669.059 296.94C670.063 292.215 671.476 287.267 672.777 283.027C674.673 276.851 676.383 272.238 676.383 272.238C685.343 250.922 698.057 239.464 707.946 233.4C709.73 232.284 711.44 231.391 713.002 230.61C719.024 227.671 723.113 226.927 723.113 226.927C723.113 226.927 725.158 237.158 733.932 241.212C733.932 241.25 735.307 246.755 735.307 246.793C736.794 252.075 735.605 260.111 732.705 268.518Z" fill="#ED0127"/>
<path d="M728.244 201.928C728.132 201.742 727.872 201.519 727.166 201.333C727.166 201.333 727.798 201.109 728.578 201.295C728.95 200.328 729.917 198.729 731.701 198.691C731.701 198.691 730.697 198.952 730.288 199.993C732.742 198.431 737.24 197.985 748.542 201.779C763.45 206.727 755.977 215.395 753.747 216.102C751.479 216.808 747.315 212.344 743.598 211.749C739.843 211.154 737.835 216.362 736.423 216.771C735.01 217.218 735.791 216.027 734.303 214.837C732.816 213.646 731.961 216.436 731.999 218.408C732.036 220.38 729.136 222.24 729.136 222.24C729.136 222.24 729.136 222.24 727.426 219.115C725.716 215.99 726.199 204.606 727.798 202.56C727.984 202.3 728.095 202.114 728.244 201.928Z" fill="#00668B"/>
<path d="M703.187 260.743C703.187 260.743 704.786 272.871 710.213 282.059C715.641 291.248 718.02 276.963 718.02 276.963L703.187 260.743Z" fill="#CD0021"/>
<path d="M724.749 285.705C719.656 295.973 717.314 304.826 716.31 311.82C716.124 313.159 715.976 314.424 715.864 315.615C715.418 320.749 715.678 324.506 715.864 326.663C716.347 332.244 674.376 321.455 668.762 313.383C665.676 308.919 669.543 293.666 672.814 283.027C673.372 283.175 699.395 289.351 717.388 273.243L724.749 285.705Z" fill="#35488B"/>
<path d="M727.946 256.874L725.344 251.703C725.344 251.628 725.641 242.551 720.214 237.269C717.277 234.404 713.187 233.102 707.983 233.4C709.767 232.284 711.477 231.391 713.039 230.61C716.756 231.168 719.879 232.693 722.333 235.111C728.69 241.361 727.946 256.465 727.946 256.874Z" fill="#2C3A64"/>
<path d="M786.117 278.236V307.142H809.353V278.236H786.117Z" fill="#233862"/>
<path d="M782.569 289.306V296.077H786.919V289.306H782.569Z" fill="#233862"/>
<path d="M779.876 291.745V293.567H782.553V291.745H779.876Z" fill="#233862"/>
<path d="M778.302 282.395V302.967H779.901V282.395H778.302Z" fill="#233862"/>
<path d="M763.747 292.512C763.747 292.512 771.926 291.062 773.264 291.21C774.602 291.359 779.287 293.591 779.324 293.963C779.361 294.335 779.138 294.67 778.32 294.67C777.502 294.67 774.788 294.224 774.974 294.559C775.123 294.893 782.856 296.791 782.856 298.353C782.856 299.915 778.469 302.631 774.863 302.668C771.257 302.706 764.342 298.167 763.747 298.093C758.579 297.386 763.747 292.512 763.747 292.512Z" fill="#FFB27D"/>
<path d="M765.271 295.824C765.42 294.224 763.747 292.476 763.747 292.476C763.747 292.476 739.508 285.817 737.501 283.771C735.493 281.762 726.199 249.508 726.199 249.508C726.199 249.508 723.002 236.451 715.529 235C709.024 233.735 704.525 236.971 701.588 240.766C698.094 245.267 697.722 251.48 700.659 256.39C707.202 267.402 720.362 289.276 724.229 292.996C732.779 301.329 763.747 299.581 763.747 299.581C763.747 299.581 764.937 299.06 765.271 295.824Z" fill="#ED0127"/>
<path d="M463.475 217.924H458.159V225.179H463.475V217.924Z" fill="#00668B"/>
<path d="M401.577 373.276C404.439 372.309 412.432 366.022 412.878 365.799C416.856 364.013 408.045 363.158 408.045 363.158C408.045 363.158 401.651 362.525 398.826 364.571C398.826 364.571 397.079 368.663 397.45 369.928C397.822 371.23 400.164 373.76 401.577 373.276Z" fill="#FFB27D"/>
<path d="M407.599 366.506C406.335 363.567 407.116 361.297 407.116 361.297C407.116 361.297 431.95 354.49 434.366 352.964C442.173 348.091 453.029 316.433 453.029 316.433C453.029 316.433 458.122 303.822 465.817 303.45C472.509 303.152 476.561 307.021 478.978 311.225C481.84 316.247 481.283 322.497 477.676 326.998C469.535 337.08 449.534 362.265 445.184 365.464C438.456 370.412 410.388 369.593 410.388 369.593C410.388 369.593 408.566 368.812 407.599 366.506Z" fill="#CD0021"/>
<path d="M423.585 396.676C427.563 402.256 437.229 404.971 455.482 405.827C456.932 405.901 458.419 405.939 459.906 406.013C461.43 406.05 462.955 406.087 464.479 406.125C469.423 406.199 474.368 406.125 479.089 405.976C483.662 405.827 487.974 405.567 491.915 405.232C499.61 404.599 505.744 403.669 508.942 402.591C509.908 402.256 510.577 401.958 510.949 401.586C511.284 401.289 511.544 400.954 511.73 400.582C512.882 398.461 512.287 394.927 510.875 391.095C508.83 385.478 505.112 379.117 502.622 375.136C502.101 374.355 501.655 373.648 501.283 373.053C500.503 371.9 500.056 371.193 500.056 371.193C500.056 371.193 491.543 371.974 479.87 373.499C477.491 373.797 474.963 374.132 472.36 374.504C447.266 378.038 422.247 384.436 422.284 392.918C422.321 394.146 422.544 395.188 423.585 396.676Z" fill="#00668B"/>
<path d="M454.367 405.679C455.891 405.716 462.955 406.013 464.479 406.051C469.423 406.125 474.368 406.051 479.089 405.902L483.513 388.083C476.673 397.643 456.56 405.083 454.367 405.679Z" fill="#2C3A64"/>
<path d="M469.163 456.086H444.85C445.222 455.156 446.151 453.965 448.419 453.556C452.248 452.886 458.902 450.803 458.047 445.26C457.192 439.643 466.524 438.936 466.524 438.936C466.524 438.936 470.353 453.965 469.163 456.086Z" fill="#1D2C51"/>
<path d="M422.916 395.523C422.916 395.523 453.103 443.029 455.594 448.683C455.594 448.683 465.855 449.65 468.345 442.285C468.345 442.285 450.389 392.137 442.508 388.008C434.627 383.879 422.916 395.523 422.916 395.523Z" fill="#00668B"/>
<path d="M470.092 300.809C470.092 300.809 462.062 316.507 453.029 318.702C453.029 318.702 453.215 315.615 454.218 312.49C454.85 310.481 454.516 308.286 453.177 306.649C453.14 306.612 453.14 306.575 453.103 306.575C450.798 303.673 449.72 301.887 449.72 301.887L452.731 293.592L452.954 289.351C453.958 291.173 455.073 292.81 456.263 294.112C462.211 300.883 470.092 300.809 470.092 300.809Z" fill="#FFB27D"/>
<path d="M456.635 293.964C456.635 293.964 459.237 300.771 453.14 306.537C450.835 303.636 449.757 301.85 449.757 301.85L452.768 293.554C456.003 292.55 456.635 293.964 456.635 293.964Z" fill="#ED975D"/>
<path d="M449.125 306.314C449.125 306.314 460.873 297.274 455.148 290.02C449.385 282.766 447.043 276.739 439.273 282.208C431.504 287.677 432.284 291.583 433.586 294.484C434.924 297.349 445.891 308.472 449.125 306.314Z" fill="#FFB27D"/>
<path d="M452.583 274.172C452.62 273.949 452.843 273.689 453.438 273.28C453.438 273.28 452.768 273.242 452.099 273.614C451.467 272.796 450.092 271.531 448.382 272.015C448.382 272.015 449.423 271.978 450.092 272.87C447.341 272.089 442.88 272.908 433.177 279.641C420.351 288.532 429.868 294.707 432.21 294.745C434.552 294.782 437.266 289.388 440.686 287.751C444.069 286.114 447.452 290.541 448.939 290.541C450.426 290.541 449.311 289.648 450.426 288.086C451.504 286.523 453.103 288.978 453.623 290.839C454.144 292.736 457.415 293.666 457.415 293.666C457.415 293.666 457.415 293.666 458.159 290.206C458.903 286.746 455.296 276.032 453.177 274.544C452.954 274.433 452.768 274.321 452.583 274.172Z" fill="#00668B"/>
<path d="M548.46 441.949C548.46 441.949 551.508 446.562 552.215 448.05C552.921 449.539 551.546 452.701 549.464 453.184C547.642 453.593 547.345 456.867 547.345 456.867H556.23C557.159 456.867 558.014 456.346 558.386 455.565C559.65 452.812 559.91 449.204 560.17 448.013C560.691 445.484 561.769 443.363 561.286 440.796C560.84 438.229 556.453 436.741 548.46 436.779C539.686 436.779 548.46 441.949 548.46 441.949Z" fill="#1D2C51"/>
<path d="M522.362 384.586C516.86 392.658 465.929 385.813 469.423 381.498C470.316 380.382 469.795 379.303 469.944 377.741C470.836 370.226 464.851 358.582 462.397 354.081C461.802 353.039 461.43 352.369 461.356 352.258C459.014 348.054 457.007 343.627 455.482 339.312C452.508 330.979 451.281 322.981 452.694 317.772C452.694 317.735 452.694 317.735 452.731 317.698C461.431 313.606 464.33 299.395 464.33 299.395C464.33 299.395 494.48 303.041 511.47 342.548C511.47 342.548 512.436 345.078 513.7 348.91C514.109 350.1 514.518 351.402 514.964 352.779C517.232 359.921 519.388 369.221 521.135 376.141C521.21 376.364 521.247 376.625 521.321 376.885C522.139 379.824 523.292 383.246 522.362 384.586Z" fill="#FF0029"/>
<path d="M549.389 445.075C548.088 445.075 544.259 445.633 538.98 446.488C519.909 449.539 496.674 455.863 482.286 455.863C479.126 455.863 476.784 453.631 475.818 450.692C469.907 432.65 483.588 379.377 483.588 379.377C483.588 379.377 488.495 380.01 498.384 380.754C508.644 381.498 519.5 383.135 521.284 386.594C521.507 387.004 521.582 387.673 521.544 388.492C521.47 389.98 521.061 392.063 520.318 394.593C520.206 395.039 520.057 395.448 519.909 395.932C517.195 404.823 511.321 418.253 504.666 430.231C522.66 431.273 547.084 435.254 547.084 435.254C551.062 439.755 549.389 445.075 549.389 445.075Z" fill="#00668B"/>
<path d="M521.507 387.71C521.433 389.347 521.024 391.654 520.28 394.444C520.169 394.927 520.02 395.411 519.871 395.894C509.722 395.225 485.446 382.093 485.855 381.981C490.502 380.716 494.629 379.861 498.346 379.303C508.607 380.233 519.462 382.167 521.247 386.297C521.396 386.669 521.47 387.115 521.507 387.71Z" fill="#2C3A64"/>
<path d="M478.792 325.919C478.792 325.919 485.261 370.635 469.981 377.703C470.873 370.189 464.888 358.545 462.434 354.043C464.739 341.953 470.502 329.193 478.792 325.919Z" fill="#E58638"/>
<path d="M469.461 300.623C469.461 300.623 457.527 305.161 458.047 316.135C458.419 324.134 469.832 340.614 469.832 340.614L471.208 338.717C471.208 338.717 460.166 317.884 460.724 313.978C461.468 308.956 467.416 300.623 474.368 302.483L469.461 300.623Z" fill="#00668B"/>
<path d="M522.362 384.585C516.86 392.658 459.758 387.413 463.252 383.06C464.144 381.944 465.557 378.633 465.743 377.034C465.817 376.289 470.055 376.178 470.018 375.359C469.684 367.956 464.628 358.098 462.397 354.043C461.802 353.002 461.431 352.332 461.356 352.22L463.475 349.319L471.208 338.679C471.208 338.679 474.405 341.32 480.093 344.036C487.565 347.57 499.276 351.142 513.663 348.872C514.072 350.063 514.481 351.365 514.927 352.741C517.195 359.884 519.351 369.184 521.098 376.103C521.173 376.327 521.21 376.587 521.284 376.847C522.139 379.824 523.292 383.246 522.362 384.585Z" fill="#00668B"/>
<path d="M480.13 344.073C480.353 357.354 478.755 370.746 470.018 374.801C468.048 366.32 464.925 358.582 462.434 354.08C462.732 352.518 463.104 350.918 463.512 349.356L471.245 338.716C471.245 338.716 474.442 341.358 480.13 344.073Z" fill="#2C3A64"/>
<path d="M373.502 355.11L422.456 385.593L425.48 380.729L376.527 350.246L373.502 355.11Z" fill="#00668B"/>
<path d="M365.516 348.389L366.817 349.207L367.821 346.12C368.676 343.478 371.724 342.251 373.992 343.664L390.944 354.229L393.621 349.951L372.171 336.596C370.089 335.294 367.263 336.336 366.371 338.754L364.252 344.334C363.62 345.859 364.178 347.57 365.516 348.389Z" fill="#00668B"/>
<path d="M378.03 351.29L388.635 357.893L392.406 351.829L381.801 345.225L378.03 351.29Z" fill="#00668B"/>
<path d="M387.859 353.597C388.082 353.225 387.97 352.741 387.599 352.518C387.227 352.295 386.744 352.406 386.521 352.778C386.298 353.15 386.409 353.634 386.781 353.857C387.153 354.08 387.636 353.969 387.859 353.597Z" fill="#2C3A64"/>
<path d="M383.584 350.918C383.807 350.546 383.695 350.063 383.323 349.84C382.952 349.616 382.468 349.728 382.245 350.1C382.022 350.472 382.134 350.956 382.506 351.179C382.877 351.402 383.361 351.29 383.584 350.918Z" fill="#2C3A64"/>
<path d="M408.492 379.34C411.54 379.34 421.094 375.918 421.615 375.881C425.927 375.471 417.86 371.826 417.86 371.826C417.86 371.826 411.689 369.78 410.536 369.891C410.165 369.928 409.309 370.077 408.64 370.226L411.057 371.714C411.057 371.714 404.216 373.202 404.179 374.504C404.105 375.843 407.005 379.34 408.492 379.34Z" fill="#FFB27D"/>
<path d="M418.157 373.797C416.67 370.97 417.265 368.663 417.265 368.663C417.265 368.663 441.467 359.921 443.772 358.21C451.17 352.741 459.534 320.339 459.534 320.339C459.534 320.339 463.624 307.356 471.282 306.389C477.937 305.533 482.286 309.104 485 313.122C488.234 317.884 488.197 324.208 484.926 328.97C477.602 339.684 459.646 366.32 455.519 369.854C449.2 375.322 421.132 376.662 421.132 376.662C421.132 376.662 419.31 376.029 418.157 373.797Z" fill="#FF0029"/>
<path d="M401.577 373.276C401.577 373.276 403.659 372.83 404.179 371.937C404.886 370.747 405.146 368.775 403.361 368.552C401.54 368.329 397.227 369.222 397.487 370.003C398.082 372.123 400.424 373.202 401.577 373.276Z" fill="#FFB27D"/>
<path d="M445.519 203.936C445.519 195.231 452.583 188.163 461.282 188.163C469.981 188.163 477.044 195.231 477.044 203.936C477.044 212.641 469.981 219.71 461.282 219.71C452.583 219.71 445.519 212.641 445.519 203.936Z" fill="#FF4A69"/>
<path d="M450.129 203.936C450.129 197.798 455.111 192.776 461.282 192.776C467.453 192.776 472.435 197.761 472.435 203.936C472.435 210.074 467.453 215.097 461.282 215.097C455.111 215.097 450.129 210.112 450.129 203.936Z" fill="#00A7E5" fill-opacity="0.25"/>
<path d="M458.159 203.936C458.159 202.225 459.535 200.849 461.245 200.849C462.955 200.849 464.33 202.225 464.33 203.936C464.33 205.648 462.955 207.024 461.245 207.024C459.535 207.024 458.159 205.648 458.159 203.936Z" fill="#00668B"/>
<path d="M461.245 204.197C461.207 204.197 461.133 204.197 461.096 204.16C460.984 204.085 460.947 203.937 461.022 203.825L465.78 196.943C465.854 196.831 466.003 196.794 466.115 196.868C466.226 196.943 466.263 197.091 466.189 197.203L461.431 204.085C461.431 204.16 461.356 204.197 461.245 204.197Z" fill="#00668B"/>
<path d="M503.031 220.007H499.239V225.178H503.031V220.007Z" fill="#00668B"/>
<path d="M490.205 210.037C490.205 203.825 495.224 198.803 501.432 198.803C507.641 198.803 512.659 203.825 512.659 210.037C512.659 216.25 507.641 221.272 501.432 221.272C495.224 221.272 490.205 216.25 490.205 210.037Z" fill="#8C9DF4"/>
<path d="M493.514 210.038C493.514 205.648 497.082 202.077 501.469 202.077C505.856 202.077 509.425 205.648 509.425 210.038C509.425 214.427 505.856 217.999 501.469 217.999C497.045 217.999 493.514 214.427 493.514 210.038Z" fill="#00A7E5" fill-opacity="0.25"/>
<path d="M499.239 210.038C499.239 208.81 500.242 207.843 501.432 207.843C502.659 207.843 503.625 208.847 503.625 210.038C503.625 211.265 502.622 212.233 501.432 212.233C500.205 212.233 499.239 211.265 499.239 210.038Z" fill="#00668B"/>
<path d="M501.432 210.223C501.395 210.223 501.358 210.223 501.32 210.186C501.246 210.112 501.209 210 501.283 209.926L504.666 205.015C504.741 204.941 504.852 204.904 504.927 204.978C505.001 205.052 505.038 205.164 504.964 205.238L501.581 210.149C501.544 210.186 501.506 210.223 501.432 210.223Z" fill="#00668B"/>
<path d="M958.699 459.211H1.30117C0.557642 459.211 0 458.616 0 457.909V456.793C0 456.049 0.594819 455.454 1.30117 455.454H958.662C959.405 455.454 960 456.049 960 456.793V457.909C960 458.616 959.405 459.211 958.699 459.211Z" fill="#233862"/>
<path d="M397.264 338.158C397.004 337.675 396.707 337.228 396.409 336.782C395.145 334.81 393.658 333.025 392.023 331.462C388.119 327.705 383.249 325.101 377.858 323.947C375.777 323.501 373.695 323.278 371.613 323.278C370.795 323.278 370.014 323.315 369.196 323.389C364.438 323.799 359.791 325.361 355.664 328.002C354.066 329.044 352.616 330.197 351.278 331.462C347.039 335.48 344.103 340.688 342.839 346.566C341.166 354.266 342.615 362.153 346.891 368.738C348.155 370.709 349.642 372.458 351.278 374.057C355.181 377.815 360.051 380.419 365.442 381.572C367.523 382.018 369.643 382.242 371.687 382.242C377.301 382.242 382.803 380.642 387.599 377.517C389.197 376.475 390.647 375.322 391.985 374.057C396.223 370.04 399.16 364.794 400.424 358.954C402.023 351.811 400.871 344.482 397.264 338.158ZM395.034 357.801C394.476 360.479 393.435 363.009 392.023 365.315C391.093 366.84 389.978 368.291 388.677 369.593C387.45 370.821 386.112 371.937 384.625 372.904C384.55 372.979 384.439 373.016 384.364 373.053C379.048 376.401 372.765 377.48 366.631 376.178C364.252 375.657 361.984 374.801 359.902 373.611C358.267 372.718 356.78 371.602 355.404 370.337C353.954 368.998 352.69 367.473 351.575 365.762C351.463 365.613 351.389 365.427 351.278 365.278C348.043 359.995 346.965 353.82 348.266 347.756C348.526 346.529 348.861 345.338 349.307 344.222C349.828 342.846 350.497 341.506 351.24 340.279C351.426 339.944 351.649 339.646 351.872 339.312C351.909 339.274 351.909 339.237 351.947 339.2C353.694 336.67 355.962 334.438 358.638 332.727C361.612 330.792 364.884 329.602 368.267 329.118C368.713 329.044 369.159 329.007 369.605 328.97C370.237 328.932 370.869 328.895 371.539 328.895C372.282 328.895 373.063 328.932 373.843 329.007C374.773 329.081 375.702 329.23 376.632 329.453C378.639 329.9 380.572 330.569 382.394 331.462H382.431C385.368 332.95 387.97 334.996 390.052 337.6C390.498 338.121 390.907 338.679 391.279 339.237C391.428 339.423 391.539 339.646 391.688 339.832C391.8 339.981 391.874 340.13 391.985 340.316C392.394 340.948 392.729 341.618 393.064 342.288C395.517 347.049 396.186 352.481 395.034 357.801Z" fill="#1C1C1C"/>
<path d="M371.836 355.978L346.779 342.846L349.344 337.898L371.539 349.542L392.58 335.963L395.591 340.614L371.836 355.978Z" fill="#1C1C1C"/>
<path d="M358.713 375.248L354.214 371.937L368.899 351.886L368.304 326.142L373.843 326.031L374.475 353.634L358.713 375.248Z" fill="#1C1C1C"/>
<path d="M373.849 351.009L369.529 354.479L386.236 375.31L390.556 371.841L373.849 351.009Z" fill="#1C1C1C"/>
<path d="M366.334 352.778C366.334 349.839 368.713 347.458 371.65 347.458C374.587 347.458 377.003 349.839 377.003 352.778C377.003 355.717 374.624 358.098 371.65 358.098C368.75 358.098 366.334 355.717 366.334 352.778Z" fill="#2A4E96"/>
<path d="M908.734 62.6093H122.756C125.395 59.7448 128.221 56.9548 131.232 54.3135H904.905C906.392 57.0292 907.656 59.782 908.734 62.6093Z" fill="#00A7E5" fill-opacity="0.25"/>
<path d="M180.416 51.7842H170.824V66.4414H180.416V51.7842Z" fill="#AEC3FF"/>
<path d="M170.824 86.0088H135.953V99.4756H170.824V86.0088Z" fill="#00A7E5" fill-opacity="0.25"/>
<g opacity="0.5">
<path opacity="0.5" d="M188.26 103.531H153.389V116.998H188.26V103.531Z" fill="#00A7E5" fill-opacity="0.25"/>
</g>
<g opacity="0.5">
<path opacity="0.5" d="M210.491 86.0088H175.62V99.4756H210.491V86.0088Z" fill="#00A7E5" fill-opacity="0.25"/>
</g>
<g opacity="0.5">
<path opacity="0.5" d="M252.352 147.019H217.48V160.486H252.352V147.019Z" fill="#00A7E5" fill-opacity="0.25"/>
</g>
<g opacity="0.5">
<path opacity="0.5" d="M274.583 129.497H239.712V142.964H274.583V129.497Z" fill="#00A7E5" fill-opacity="0.25"/>
</g>
<g opacity="0.5">
<path opacity="0.5" d="M853.119 189.688H818.247V203.155H853.119V189.688Z" fill="#00A7E5" fill-opacity="0.25"/>
</g>
<g opacity="0.5">
<path opacity="0.5" d="M875.35 172.167H840.479V185.634H875.35V172.167Z" fill="#00A7E5" fill-opacity="0.25"/>
</g>
<g opacity="0.5">
<path opacity="0.5" d="M892.786 154.645H857.914V168.112H892.786V154.645Z" fill="#00A7E5" fill-opacity="0.25"/>
</g>
<g opacity="0.5">
<path opacity="0.5" d="M835.72 172.167H800.849V185.634H835.72V172.167Z" fill="#00A7E5" fill-opacity="0.25"/>
</g>
<g opacity="0.5">
<path opacity="0.5" d="M416.336 174.213H381.465V187.68H416.336V174.213Z" fill="#00A7E5" fill-opacity="0.25"/>
</g>
<g opacity="0.5">
<path opacity="0.5" d="M398.9 156.654H364.029V170.121H398.9V156.654Z" fill="#00A7E5" fill-opacity="0.25"/>
</g>
<g opacity="0.5">
<path opacity="0.5" d="M507.641 134.668H472.769V148.135H507.641V134.668Z" fill="#00A7E5" fill-opacity="0.25"/>
</g>
<g opacity="0.5">
<path opacity="0.5" d="M676.904 134.668H642.032V148.135H676.904V134.668Z" fill="#00A7E5" fill-opacity="0.25"/>
</g>
<g opacity="0.5">
<path opacity="0.5" d="M702.481 152.19H667.609V165.657H702.481V152.19Z" fill="#00A7E5" fill-opacity="0.25"/>
</g>
<path d="M731.367 455.863H772.446C774.342 455.863 775.866 454.337 775.866 452.44V452.403C775.866 450.506 774.342 448.98 772.446 448.98H731.367C729.471 448.98 727.946 450.506 727.946 452.403V452.44C727.983 454.337 729.508 455.863 731.367 455.863Z" fill="#CD0021"/>
<path d="M808.433 455.862H762.632C760.104 455.862 758.022 453.779 758.022 451.249V416.28C758.022 413.751 760.104 411.667 762.632 411.667H808.433C810.961 411.667 813.043 413.751 813.043 416.28V451.249C813.043 453.779 810.961 455.862 808.433 455.862Z" fill="#CD0021"/>
<path d="M770.067 411.817C770.067 411.817 781.48 404.562 792.373 404.488C799.473 404.451 807.578 411.519 808.061 411.593C809.288 411.779 803.934 411.854 803.934 411.854C803.934 411.854 795.904 407.129 792.298 407.018C787.949 406.869 776.907 412.263 776.907 412.263L770.067 411.817Z" fill="#F99746"/>
<path d="M813.786 455.862H767.985C765.457 455.862 763.375 453.779 763.375 451.249V416.28C763.375 413.751 765.457 411.667 767.985 411.667H813.786C816.314 411.667 818.396 413.751 818.396 416.28V451.249C818.396 453.779 816.314 455.862 813.786 455.862Z" fill="#ED0127"/>
</g>
<defs>
<clipPath id="clip0_499_2">
<rect width="960" height="459.211" fill="white"/>
</clipPath>
</defs>
</svg>
